<?xml version="1.0" encoding="UTF-8" standalone="no"?>
<!DOCTYPE svg PUBLIC "-//W3C//DTD SVG 1.1//EN"
 "http://www.w3.org/Graphics/SVG/1.1/DTD/svg11.dtd">
<!-- Generated by graphviz version 2.40.1 (20161225.0304)
 -->
<!-- Title: dependencies Pages: 1 -->
<svg width="1071pt" height="211pt"
 viewBox="0.00 0.00 1071.00 211.00" xmlns="http://www.w3.org/2000/svg" xmlns:xlink="http://www.w3.org/1999/xlink">
<g id="graph0" class="graph" transform="scale(1 1) rotate(0) translate(4 207)">
<title>dependencies</title>
<polygon fill="#ffffff" stroke="transparent" points="-4,4 -4,-207 1067,-207 1067,4 -4,4"/>
<text text-anchor="start" x="510.5091" y="-42.4" font-family="sans-serif" font-weight="bold" font-size="14.00" fill="#000000">Legend</text>
<polygon fill="#ffffb3" stroke="transparent" points="297.5,-10 297.5,-30 317.5,-30 317.5,-10 297.5,-10"/>
<text text-anchor="start" x="321.129" y="-15.4" font-family="sans-serif" font-size="14.00" fill="#000000"> &#160;Declarations</text>
<polygon fill="#8dd3c7" stroke="transparent" points="410.5,-10 410.5,-30 430.5,-30 430.5,-10 410.5,-10"/>
<text text-anchor="start" x="434.2251" y="-15.4" font-family="sans-serif" font-size="14.00" fill="#000000"> &#160;Module</text>
<polygon fill="#80b1d3" stroke="transparent" points="496.5,-10 496.5,-30 516.5,-30 516.5,-10 496.5,-10"/>
<text text-anchor="start" x="520.2812" y="-15.4" font-family="sans-serif" font-size="14.00" fill="#000000"> &#160;Bootstrap</text>
<polygon fill="#fdb462" stroke="transparent" points="593.5,-10 593.5,-30 613.5,-30 613.5,-10 593.5,-10"/>
<text text-anchor="start" x="617.1732" y="-15.4" font-family="sans-serif" font-size="14.00" fill="#000000"> &#160;Providers</text>
<polygon fill="#fb8072" stroke="transparent" points="689.5,-10 689.5,-30 709.5,-30 709.5,-10 689.5,-10"/>
<text text-anchor="start" x="713.2258" y="-15.4" font-family="sans-serif" font-size="14.00" fill="#000000"> &#160;Exports</text>
<g id="clust1" class="cluster">
<title>cluster_DashboardModule</title>
<polygon fill="none" stroke="#000000" stroke-dasharray="1,5" points="8,-70 8,-195 1055,-195 1055,-70 8,-70"/>
</g>
<g id="clust2" class="cluster">
<title>cluster_DashboardModule_declarations</title>
<polygon fill="none" stroke="#000000" points="16,-78 16,-130 1047,-130 1047,-78 16,-78"/>
</g>
<!-- EntryComponent -->
<g id="node1" class="node">
<title>EntryComponent</title>
<polygon fill="#ffffb3" stroke="#000000" points="1039.437,-122 926.563,-122 926.563,-86 1039.437,-86 1039.437,-122"/>
<text text-anchor="middle" x="983" y="-99.8" font-family="Times,serif" font-size="14.00" fill="#000000">EntryComponent</text>
</g>
<!-- DashboardModule -->
<g id="node8" class="node">
<title>DashboardModule</title>
<polygon fill="#8dd3c7" stroke="#000000" points="651.191,-187 648.191,-191 627.191,-191 624.191,-187 530.809,-187 530.809,-151 651.191,-151 651.191,-187"/>
<text text-anchor="middle" x="591" y="-164.8" font-family="Times,serif" font-size="14.00" fill="#000000">DashboardModule</text>
</g>
<!-- EntryComponent&#45;&gt;DashboardModule -->
<g id="edge1" class="edge">
<title>EntryComponent&#45;&gt;DashboardModule</title>
<path fill="none" stroke="#000000" d="M983,-122.2921C983,-144.2057 983,-178 983,-178 983,-178 661.3909,-178 661.3909,-178"/>
<polygon fill="#000000" stroke="#000000" points="661.391,-174.5001 651.3909,-178 661.3909,-181.5001 661.391,-174.5001"/>
</g>
<!-- EntryHeaderComponent -->
<g id="node2" class="node">
<title>EntryHeaderComponent</title>
<polygon fill="#ffffb3" stroke="#000000" points="908.3473,-122 755.6527,-122 755.6527,-86 908.3473,-86 908.3473,-122"/>
<text text-anchor="middle" x="832" y="-99.8" font-family="Times,serif" font-size="14.00" fill="#000000">EntryHeaderComponent</text>
</g>
<!-- EntryHeaderComponent&#45;&gt;DashboardModule -->
<g id="edge2" class="edge">
<title>EntryHeaderComponent&#45;&gt;DashboardModule</title>
<path fill="none" stroke="#000000" d="M832,-122.1061C832,-141.3391 832,-169 832,-169 832,-169 661.1928,-169 661.1928,-169"/>
<polygon fill="#000000" stroke="#000000" points="661.1928,-165.5001 651.1928,-169 661.1928,-172.5001 661.1928,-165.5001"/>
</g>
<!-- FilterPipe -->
<g id="node3" class="node">
<title>FilterPipe</title>
<polygon fill="#ffffb3" stroke="#000000" points="737.7177,-122 666.2823,-122 666.2823,-86 737.7177,-86 737.7177,-122"/>
<text text-anchor="middle" x="702" y="-99.8" font-family="Times,serif" font-size="14.00" fill="#000000">FilterPipe</text>
</g>
<!-- FilterPipe&#45;&gt;DashboardModule -->
<g id="edge3" class="edge">
<title>FilterPipe&#45;&gt;DashboardModule</title>
<path fill="none" stroke="#000000" d="M702,-122.027C702,-138.3976 702,-160 702,-160 702,-160 661.3723,-160 661.3723,-160"/>
<polygon fill="#000000" stroke="#000000" points="661.3724,-156.5001 651.3723,-160 661.3723,-163.5001 661.3724,-156.5001"/>
</g>
<!-- HomeComponent -->
<g id="node4" class="node">
<title>HomeComponent</title>
<polygon fill="#ffffb3" stroke="#000000" points="648.5451,-122 533.4549,-122 533.4549,-86 648.5451,-86 648.5451,-122"/>
<text text-anchor="middle" x="591" y="-99.8" font-family="Times,serif" font-size="14.00" fill="#000000">HomeComponent</text>
</g>
<!-- HomeComponent&#45;&gt;DashboardModule -->
<g id="edge4" class="edge">
<title>HomeComponent&#45;&gt;DashboardModule</title>
<path fill="none" stroke="#000000" d="M591,-122.1061C591,-122.1061 591,-140.991 591,-140.991"/>
<polygon fill="#000000" stroke="#000000" points="587.5001,-140.9909 591,-150.991 594.5001,-140.991 587.5001,-140.9909"/>
</g>
<!-- NewEntryComponent -->
<g id="node5" class="node">
<title>NewEntryComponent</title>
<polygon fill="#ffffb3" stroke="#000000" points="515.3641,-122 376.6359,-122 376.6359,-86 515.3641,-86 515.3641,-122"/>
<text text-anchor="middle" x="446" y="-99.8" font-family="Times,serif" font-size="14.00" fill="#000000">NewEntryComponent</text>
</g>
<!-- NewEntryComponent&#45;&gt;DashboardModule -->
<g id="edge5" class="edge">
<title>NewEntryComponent&#45;&gt;DashboardModule</title>
<path fill="none" stroke="#000000" d="M446,-122.027C446,-138.3976 446,-160 446,-160 446,-160 520.7666,-160 520.7666,-160"/>
<polygon fill="#000000" stroke="#000000" points="520.7667,-163.5001 530.7666,-160 520.7666,-156.5001 520.7667,-163.5001"/>
</g>
<!-- NewTravelTagsComponent -->
<g id="node6" class="node">
<title>NewTravelTagsComponent</title>
<polygon fill="#ffffb3" stroke="#000000" points="358.5057,-122 187.4943,-122 187.4943,-86 358.5057,-86 358.5057,-122"/>
<text text-anchor="middle" x="273" y="-99.8" font-family="Times,serif" font-size="14.00" fill="#000000">NewTravelTagsComponent</text>
</g>
<!-- NewTravelTagsComponent&#45;&gt;DashboardModule -->
<g id="edge6" class="edge">
<title>NewTravelTagsComponent&#45;&gt;DashboardModule</title>
<path fill="none" stroke="#000000" d="M273,-122.1061C273,-141.3391 273,-169 273,-169 273,-169 520.8128,-169 520.8128,-169"/>
<polygon fill="#000000" stroke="#000000" points="520.8128,-172.5001 530.8128,-169 520.8127,-165.5001 520.8128,-172.5001"/>
</g>
<!-- TravelTagsComponent -->
<g id="node7" class="node">
<title>TravelTagsComponent</title>
<polygon fill="#ffffb3" stroke="#000000" points="169.5772,-122 24.4228,-122 24.4228,-86 169.5772,-86 169.5772,-122"/>
<text text-anchor="middle" x="97" y="-99.8" font-family="Times,serif" font-size="14.00" fill="#000000">TravelTagsComponent</text>
</g>
<!-- TravelTagsComponent&#45;&gt;DashboardModule -->
<g id="edge7" class="edge">
<title>TravelTagsComponent&#45;&gt;DashboardModule</title>
<path fill="none" stroke="#000000" d="M97,-122.2921C97,-144.2057 97,-178 97,-178 97,-178 520.4259,-178 520.4259,-178"/>
<polygon fill="#000000" stroke="#000000" points="520.4259,-181.5001 530.4259,-178 520.4259,-174.5001 520.4259,-181.5001"/>
</g>
</g>
</svg>
