<?xml version="1.0" encoding="UTF-8" standalone="no"?>
<!DOCTYPE svg PUBLIC "-//W3C//DTD SVG 1.1//EN"
 "http://www.w3.org/Graphics/SVG/1.1/DTD/svg11.dtd">
<!-- Generated by graphviz version 2.40.1 (20161225.0304)
 -->
<!-- Title: dependencies Pages: 1 -->
<svg width="1488pt" height="360pt"
 viewBox="0.00 0.00 1488.00 360.00" xmlns="http://www.w3.org/2000/svg" xmlns:xlink="http://www.w3.org/1999/xlink">
<g id="graph0" class="graph" transform="scale(1 1) rotate(0) translate(4 356)">
<title>dependencies</title>
<polygon fill="#ffffff" stroke="transparent" points="-4,4 -4,-356 1484,-356 1484,4 -4,4"/>
<text text-anchor="start" x="719.0091" y="-42.4" font-family="sans-serif" font-weight="bold" font-size="14.00" fill="#000000">Legend</text>
<polygon fill="#ffffb3" stroke="transparent" points="506,-10 506,-30 526,-30 526,-10 506,-10"/>
<text text-anchor="start" x="529.629" y="-15.4" font-family="sans-serif" font-size="14.00" fill="#000000"> &#160;Declarations</text>
<polygon fill="#8dd3c7" stroke="transparent" points="619,-10 619,-30 639,-30 639,-10 619,-10"/>
<text text-anchor="start" x="642.7251" y="-15.4" font-family="sans-serif" font-size="14.00" fill="#000000"> &#160;Module</text>
<polygon fill="#80b1d3" stroke="transparent" points="705,-10 705,-30 725,-30 725,-10 705,-10"/>
<text text-anchor="start" x="728.7812" y="-15.4" font-family="sans-serif" font-size="14.00" fill="#000000"> &#160;Bootstrap</text>
<polygon fill="#fdb462" stroke="transparent" points="802,-10 802,-30 822,-30 822,-10 802,-10"/>
<text text-anchor="start" x="825.6732" y="-15.4" font-family="sans-serif" font-size="14.00" fill="#000000"> &#160;Providers</text>
<polygon fill="#fb8072" stroke="transparent" points="898,-10 898,-30 918,-30 918,-10 898,-10"/>
<text text-anchor="start" x="921.7258" y="-15.4" font-family="sans-serif" font-size="14.00" fill="#000000"> &#160;Exports</text>
<g id="clust1" class="cluster">
<title>cluster_AppModule</title>
<polygon fill="none" stroke="#000000" stroke-dasharray="1,5" points="8,-146 8,-344 1472,-344 1472,-146 8,-146"/>
</g>
<g id="clust2" class="cluster">
<title>cluster_AppModule_declarations</title>
<polygon fill="none" stroke="#000000" points="865,-154 865,-206 1464,-206 1464,-154 865,-154"/>
</g>
<g id="clust7" class="cluster">
<title>cluster_AppModule_imports</title>
<polygon fill="none" stroke="#000000" points="575,-154 575,-206 857,-206 857,-154 575,-154"/>
</g>
<g id="clust9" class="cluster">
<title>cluster_AppModule_bootstrap</title>
<polygon fill="none" stroke="#000000" points="652,-284 652,-336 776,-336 776,-284 652,-284"/>
</g>
<g id="clust10" class="cluster">
<title>cluster_AppModule_providers</title>
<polygon fill="none" stroke="#000000" points="16,-154 16,-206 567,-206 567,-154 16,-154"/>
</g>
<g id="clust17" class="cluster">
<title>cluster_DashboardModule</title>
<polygon fill="none" stroke="#000000" stroke-dasharray="1,5" points="60,-70 60,-138 1107,-138 1107,-70 60,-70"/>
</g>
<g id="clust18" class="cluster">
<title>cluster_DashboardModule_declarations</title>
<polygon fill="none" stroke="#000000" points="68,-78 68,-130 1099,-130 1099,-78 68,-78"/>
</g>
<!-- AppComponent -->
<g id="node1" class="node">
<title>AppComponent</title>
<polygon fill="#ffffb3" stroke="#000000" points="1455.9399,-198 1350.0601,-198 1350.0601,-162 1455.9399,-162 1455.9399,-198"/>
<text text-anchor="middle" x="1403" y="-175.8" font-family="Times,serif" font-size="14.00" fill="#000000">AppComponent</text>
</g>
<!-- AppModule -->
<g id="node5" class="node">
<title>AppModule</title>
<polygon fill="#8dd3c7" stroke="#000000" points="755.6571,-263 752.6571,-267 731.6571,-267 728.6571,-263 672.3429,-263 672.3429,-227 755.6571,-227 755.6571,-263"/>
<text text-anchor="middle" x="714" y="-240.8" font-family="Times,serif" font-size="14.00" fill="#000000">AppModule</text>
</g>
<!-- AppComponent&#45;&gt;AppModule -->
<g id="edge1" class="edge">
<title>AppComponent&#45;&gt;AppModule</title>
<path fill="none" stroke="#000000" d="M1403,-198.0109C1403,-220.4852 1403,-256 1403,-256 1403,-256 765.8053,-256 765.8053,-256"/>
<polygon fill="#000000" stroke="#000000" points="765.8053,-252.5001 755.8053,-256 765.8053,-259.5001 765.8053,-252.5001"/>
</g>
<!-- LoginComponent -->
<g id="node2" class="node">
<title>LoginComponent</title>
<polygon fill="#ffffb3" stroke="#000000" points="1332.2758,-198 1217.7242,-198 1217.7242,-162 1332.2758,-162 1332.2758,-198"/>
<text text-anchor="middle" x="1275" y="-175.8" font-family="Times,serif" font-size="14.00" fill="#000000">LoginComponent</text>
</g>
<!-- LoginComponent&#45;&gt;AppModule -->
<g id="edge2" class="edge">
<title>LoginComponent&#45;&gt;AppModule</title>
<path fill="none" stroke="#000000" d="M1275,-198.1289C1275,-218.5724 1275,-249 1275,-249 1275,-249 765.7079,-249 765.7079,-249"/>
<polygon fill="#000000" stroke="#000000" points="765.7079,-245.5001 755.7079,-249 765.7078,-252.5001 765.7079,-245.5001"/>
</g>
<!-- NavigationComponent -->
<g id="node3" class="node">
<title>NavigationComponent</title>
<polygon fill="#ffffb3" stroke="#000000" points="1199.5407,-198 1056.4593,-198 1056.4593,-162 1199.5407,-162 1199.5407,-198"/>
<text text-anchor="middle" x="1128" y="-175.8" font-family="Times,serif" font-size="14.00" fill="#000000">NavigationComponent</text>
</g>
<!-- NavigationComponent&#45;&gt;AppModule -->
<g id="edge3" class="edge">
<title>NavigationComponent&#45;&gt;AppModule</title>
<path fill="none" stroke="#000000" d="M1128,-198.2667C1128,-216.5552 1128,-242 1128,-242 1128,-242 765.9748,-242 765.9748,-242"/>
<polygon fill="#000000" stroke="#000000" points="765.9749,-238.5001 755.9748,-242 765.9748,-245.5001 765.9749,-238.5001"/>
</g>
<!-- PageNotFoundComponent -->
<g id="node4" class="node">
<title>PageNotFoundComponent</title>
<polygon fill="#ffffb3" stroke="#000000" points="1038.8243,-198 873.1757,-198 873.1757,-162 1038.8243,-162 1038.8243,-198"/>
<text text-anchor="middle" x="956" y="-175.8" font-family="Times,serif" font-size="14.00" fill="#000000">PageNotFoundComponent</text>
</g>
<!-- PageNotFoundComponent&#45;&gt;AppModule -->
<g id="edge4" class="edge">
<title>PageNotFoundComponent&#45;&gt;AppModule</title>
<path fill="none" stroke="#000000" d="M956,-198.0091C956,-214.0494 956,-235 956,-235 956,-235 765.8769,-235 765.8769,-235"/>
<polygon fill="#000000" stroke="#000000" points="765.8769,-231.5001 755.8769,-235 765.8769,-238.5001 765.8769,-231.5001"/>
</g>
<!-- AppComponent  -->
<g id="node8" class="node">
<title>AppComponent </title>
<polygon fill="#80b1d3" stroke="#000000" points="768.439,-328 659.561,-328 659.561,-292 768.439,-292 768.439,-328"/>
<text text-anchor="middle" x="714" y="-305.8" font-family="Times,serif" font-size="14.00" fill="#000000">AppComponent </text>
</g>
<!-- AppModule&#45;&gt;AppComponent  -->
<g id="edge7" class="edge">
<title>AppModule&#45;&gt;AppComponent </title>
<path fill="none" stroke="#000000" stroke-dasharray="1,5" d="M714,-263.1061C714,-263.1061 714,-281.991 714,-281.991"/>
<polygon fill="#000000" stroke="#000000" points="710.5001,-281.9909 714,-291.991 717.5001,-281.991 710.5001,-281.9909"/>
</g>
<!-- AppRoutingModule -->
<g id="node6" class="node">
<title>AppRoutingModule</title>
<polygon fill="#8dd3c7" stroke="#000000" points="849.2744,-198 846.2744,-202 825.2744,-202 822.2744,-198 720.7256,-198 720.7256,-162 849.2744,-162 849.2744,-198"/>
<text text-anchor="middle" x="785" y="-175.8" font-family="Times,serif" font-size="14.00" fill="#000000">AppRoutingModule</text>
</g>
<!-- AppRoutingModule&#45;&gt;AppModule -->
<g id="edge5" class="edge">
<title>AppRoutingModule&#45;&gt;AppModule</title>
<path fill="none" stroke="#000000" d="M738.2206,-198.1061C738.2206,-198.1061 738.2206,-216.991 738.2206,-216.991"/>
<polygon fill="#000000" stroke="#000000" points="734.7206,-216.9909 738.2206,-226.991 741.7206,-216.991 734.7206,-216.9909"/>
</g>
<!-- DashboardModule -->
<g id="node7" class="node">
<title>DashboardModule</title>
<polygon fill="#8dd3c7" stroke="#000000" points="703.191,-198 700.191,-202 679.191,-202 676.191,-198 582.809,-198 582.809,-162 703.191,-162 703.191,-198"/>
<text text-anchor="middle" x="643" y="-175.8" font-family="Times,serif" font-size="14.00" fill="#000000">DashboardModule</text>
</g>
<!-- DashboardModule&#45;&gt;AppModule -->
<g id="edge6" class="edge">
<title>DashboardModule&#45;&gt;AppModule</title>
<path fill="none" stroke="#000000" d="M687.6336,-198.1061C687.6336,-198.1061 687.6336,-216.991 687.6336,-216.991"/>
<polygon fill="#000000" stroke="#000000" points="684.1337,-216.9909 687.6336,-226.991 691.1337,-216.991 684.1337,-216.9909"/>
</g>
<!-- ApiService -->
<g id="node9" class="node">
<title>ApiService</title>
<ellipse fill="#fdb462" stroke="#000000" cx="505" cy="-180" rx="54.4508" ry="18"/>
<text text-anchor="middle" x="505" y="-175.8" font-family="Times,serif" font-size="14.00" fill="#000000">ApiService</text>
</g>
<!-- ApiService&#45;&gt;AppModule -->
<g id="edge8" class="edge">
<title>ApiService&#45;&gt;AppModule</title>
<path fill="none" stroke="#000000" d="M505,-198.0091C505,-214.0494 505,-235 505,-235 505,-235 662.208,-235 662.208,-235"/>
<polygon fill="#000000" stroke="#000000" points="662.2081,-238.5001 672.208,-235 662.208,-231.5001 662.2081,-238.5001"/>
</g>
<!-- AuthService -->
<g id="node10" class="node">
<title>AuthService</title>
<ellipse fill="#fdb462" stroke="#000000" cx="373" cy="-180" rx="59.1083" ry="18"/>
<text text-anchor="middle" x="373" y="-175.8" font-family="Times,serif" font-size="14.00" fill="#000000">AuthService</text>
</g>
<!-- AuthService&#45;&gt;AppModule -->
<g id="edge9" class="edge">
<title>AuthService&#45;&gt;AppModule</title>
<path fill="none" stroke="#000000" d="M373,-198.2667C373,-216.5552 373,-242 373,-242 373,-242 662.1867,-242 662.1867,-242"/>
<polygon fill="#000000" stroke="#000000" points="662.1867,-245.5001 672.1867,-242 662.1867,-238.5001 662.1867,-245.5001"/>
</g>
<!-- ErrorInterceptor -->
<g id="node11" class="node">
<title>ErrorInterceptor</title>
<ellipse fill="#fdb462" stroke="#000000" cx="222" cy="-180" rx="73.5329" ry="18"/>
<text text-anchor="middle" x="222" y="-175.8" font-family="Times,serif" font-size="14.00" fill="#000000">ErrorInterceptor</text>
</g>
<!-- ErrorInterceptor&#45;&gt;AppModule -->
<g id="edge10" class="edge">
<title>ErrorInterceptor&#45;&gt;AppModule</title>
<path fill="none" stroke="#000000" d="M222,-198.1289C222,-218.5724 222,-249 222,-249 222,-249 662.0524,-249 662.0524,-249"/>
<polygon fill="#000000" stroke="#000000" points="662.0524,-252.5001 672.0524,-249 662.0523,-245.5001 662.0524,-252.5001"/>
</g>
<!-- Interceptor -->
<g id="node12" class="node">
<title>Interceptor</title>
<ellipse fill="#fdb462" stroke="#000000" cx="77" cy="-180" rx="53.2878" ry="18"/>
<text text-anchor="middle" x="77" y="-175.8" font-family="Times,serif" font-size="14.00" fill="#000000">Interceptor</text>
</g>
<!-- Interceptor&#45;&gt;AppModule -->
<g id="edge11" class="edge">
<title>Interceptor&#45;&gt;AppModule</title>
<path fill="none" stroke="#000000" d="M77,-198.0109C77,-220.4852 77,-256 77,-256 77,-256 662.2047,-256 662.2047,-256"/>
<polygon fill="#000000" stroke="#000000" points="662.2047,-259.5001 672.2047,-256 662.2046,-252.5001 662.2047,-259.5001"/>
</g>
<!-- EntryComponent -->
<g id="node13" class="node">
<title>EntryComponent</title>
<polygon fill="#ffffb3" stroke="#000000" points="1091.437,-122 978.563,-122 978.563,-86 1091.437,-86 1091.437,-122"/>
<text text-anchor="middle" x="1035" y="-99.8" font-family="Times,serif" font-size="14.00" fill="#000000">EntryComponent</text>
</g>
<!-- EntryComponent&#45;&gt;DashboardModule -->
<g id="edge12" class="edge">
<title>EntryComponent&#45;&gt;DashboardModule</title>
<path fill="none" stroke="#000000" d="M1008.722,-122.0511C1008.722,-136.373 1008.722,-154 1008.722,-154 1008.722,-154 681.5147,-154 681.5147,-154 681.5147,-154 681.5147,-154.7942 681.5147,-154.7942"/>
<polygon fill="#000000" stroke="#000000" points="678.0149,-151.9421 681.5147,-161.9421 685.0149,-151.9422 678.0149,-151.9421"/>
</g>
<!-- EntryHeaderComponent -->
<g id="node14" class="node">
<title>EntryHeaderComponent</title>
<polygon fill="#ffffb3" stroke="#000000" points="960.3473,-122 807.6527,-122 807.6527,-86 960.3473,-86 960.3473,-122"/>
<text text-anchor="middle" x="884" y="-99.8" font-family="Times,serif" font-size="14.00" fill="#000000">EntryHeaderComponent</text>
</g>
<!-- EntryHeaderComponent&#45;&gt;DashboardModule -->
<g id="edge13" class="edge">
<title>EntryHeaderComponent&#45;&gt;DashboardModule</title>
<path fill="none" stroke="#000000" d="M828.4817,-122.0555C828.4817,-133.439 828.4817,-146 828.4817,-146 828.4817,-146 662.2574,-146 662.2574,-146 662.2574,-146 662.2574,-151.8056 662.2574,-151.8056"/>
<polygon fill="#000000" stroke="#000000" points="658.7575,-151.8055 662.2574,-161.8056 665.7575,-151.8056 658.7575,-151.8055"/>
</g>
<!-- FilterPipe -->
<g id="node15" class="node">
<title>FilterPipe</title>
<polygon fill="#ffffb3" stroke="#000000" points="789.7177,-122 718.2823,-122 718.2823,-86 789.7177,-86 789.7177,-122"/>
<text text-anchor="middle" x="754" y="-99.8" font-family="Times,serif" font-size="14.00" fill="#000000">FilterPipe</text>
</g>
<!-- FilterPipe&#45;&gt;DashboardModule -->
<g id="edge14" class="edge">
<title>FilterPipe&#45;&gt;DashboardModule</title>
<path fill="none" stroke="#000000" d="M718.2781,-104C713.7954,-104 710.7434,-104 710.7434,-104 710.7434,-104 710.7434,-180 710.7434,-180 710.7434,-180 709.9925,-180 709.9925,-180"/>
<polygon fill="#000000" stroke="#000000" points="713.2348,-176.5001 703.2348,-180 713.2347,-183.5001 713.2348,-176.5001"/>
</g>
<!-- HomeComponent -->
<g id="node16" class="node">
<title>HomeComponent</title>
<polygon fill="#ffffb3" stroke="#000000" points="700.5451,-122 585.4549,-122 585.4549,-86 700.5451,-86 700.5451,-122"/>
<text text-anchor="middle" x="643" y="-99.8" font-family="Times,serif" font-size="14.00" fill="#000000">HomeComponent</text>
</g>
<!-- HomeComponent&#45;&gt;DashboardModule -->
<g id="edge15" class="edge">
<title>HomeComponent&#45;&gt;DashboardModule</title>
<path fill="none" stroke="#000000" d="M643,-122.0109C643,-122.0109 643,-151.855 643,-151.855"/>
<polygon fill="#000000" stroke="#000000" points="639.5001,-151.8549 643,-161.855 646.5001,-151.855 639.5001,-151.8549"/>
</g>
<!-- NewEntryComponent -->
<g id="node17" class="node">
<title>NewEntryComponent</title>
<polygon fill="#ffffb3" stroke="#000000" points="567.3641,-122 428.6359,-122 428.6359,-86 567.3641,-86 567.3641,-122"/>
<text text-anchor="middle" x="498" y="-99.8" font-family="Times,serif" font-size="14.00" fill="#000000">NewEntryComponent</text>
</g>
<!-- NewEntryComponent&#45;&gt;DashboardModule -->
<g id="edge16" class="edge">
<title>NewEntryComponent&#45;&gt;DashboardModule</title>
<path fill="none" stroke="#000000" d="M563.4537,-122.0109C563.4537,-144.4852 563.4537,-180 563.4537,-180 563.4537,-180 572.7096,-180 572.7096,-180"/>
<polygon fill="#000000" stroke="#000000" points="572.7097,-183.5001 582.7096,-180 572.7096,-176.5001 572.7097,-183.5001"/>
</g>
<!-- NewTravelTagsComponent -->
<g id="node18" class="node">
<title>NewTravelTagsComponent</title>
<polygon fill="#ffffb3" stroke="#000000" points="410.5057,-122 239.4943,-122 239.4943,-86 410.5057,-86 410.5057,-122"/>
<text text-anchor="middle" x="325" y="-99.8" font-family="Times,serif" font-size="14.00" fill="#000000">NewTravelTagsComponent</text>
</g>
<!-- NewTravelTagsComponent&#45;&gt;DashboardModule -->
<g id="edge17" class="edge">
<title>NewTravelTagsComponent&#45;&gt;DashboardModule</title>
<path fill="none" stroke="#000000" d="M362.2243,-122.0579C362.2243,-126.4945 362.2243,-130 362.2243,-130 362.2243,-130 623.7426,-130 623.7426,-130 623.7426,-130 623.7426,-151.9489 623.7426,-151.9489"/>
<polygon fill="#000000" stroke="#000000" points="620.2427,-151.9488 623.7426,-161.9489 627.2427,-151.9489 620.2427,-151.9488"/>
</g>
<!-- TravelTagsComponent -->
<g id="node19" class="node">
<title>TravelTagsComponent</title>
<polygon fill="#ffffb3" stroke="#000000" points="221.5772,-122 76.4228,-122 76.4228,-86 221.5772,-86 221.5772,-122"/>
<text text-anchor="middle" x="149" y="-99.8" font-family="Times,serif" font-size="14.00" fill="#000000">TravelTagsComponent</text>
</g>
<!-- TravelTagsComponent&#45;&gt;DashboardModule -->
<g id="edge18" class="edge">
<title>TravelTagsComponent&#45;&gt;DashboardModule</title>
<path fill="none" stroke="#000000" d="M184.8863,-122.1944C184.8863,-130.2782 184.8863,-138 184.8863,-138 184.8863,-138 604.4853,-138 604.4853,-138 604.4853,-138 604.4853,-151.9445 604.4853,-151.9445"/>
<polygon fill="#000000" stroke="#000000" points="600.9854,-151.9444 604.4853,-161.9445 607.9854,-151.9445 600.9854,-151.9444"/>
</g>
</g>
</svg>
