<?xml version="1.0" encoding="UTF-8" standalone="no"?>
<!DOCTYPE svg PUBLIC "-//W3C//DTD SVG 1.1//EN"
 "http://www.w3.org/Graphics/SVG/1.1/DTD/svg11.dtd">
<!-- Generated by graphviz version 2.40.1 (20161225.0304)
 -->
<!-- Title: dependencies Pages: 1 -->
<svg width="1488pt" height="284pt"
 viewBox="0.00 0.00 1488.00 284.00" xmlns="http://www.w3.org/2000/svg" xmlns:xlink="http://www.w3.org/1999/xlink">
<g id="graph0" class="graph" transform="scale(1 1) rotate(0) translate(4 280)">
<title>dependencies</title>
<polygon fill="#ffffff" stroke="transparent" points="-4,4 -4,-280 1484,-280 1484,4 -4,4"/>
<text text-anchor="start" x="719.0091" y="-42.4" font-family="sans-serif" font-weight="bold" font-size="14.00" fill="#000000">Legend</text>
<polygon fill="#ffffb3" stroke="transparent" points="506,-10 506,-30 526,-30 526,-10 506,-10"/>
<text text-anchor="start" x="529.629" y="-15.4" font-family="sans-serif" font-size="14.00" fill="#000000"> &#160;Declarations</text>
<polygon fill="#8dd3c7" stroke="transparent" points="619,-10 619,-30 639,-30 639,-10 619,-10"/>
<text text-anchor="start" x="642.7251" y="-15.4" font-family="sans-serif" font-size="14.00" fill="#000000"> &#160;Module</text>
<polygon fill="#80b1d3" stroke="transparent" points="705,-10 705,-30 725,-30 725,-10 705,-10"/>
<text text-anchor="start" x="728.7812" y="-15.4" font-family="sans-serif" font-size="14.00" fill="#000000"> &#160;Bootstrap</text>
<polygon fill="#fdb462" stroke="transparent" points="802,-10 802,-30 822,-30 822,-10 802,-10"/>
<text text-anchor="start" x="825.6732" y="-15.4" font-family="sans-serif" font-size="14.00" fill="#000000"> &#160;Providers</text>
<polygon fill="#fb8072" stroke="transparent" points="898,-10 898,-30 918,-30 918,-10 898,-10"/>
<text text-anchor="start" x="921.7258" y="-15.4" font-family="sans-serif" font-size="14.00" fill="#000000"> &#160;Exports</text>
<g id="clust1" class="cluster">
<title>cluster_AppModule</title>
<polygon fill="none" stroke="#000000" stroke-dasharray="1,5" points="8,-70 8,-268 1472,-268 1472,-70 8,-70"/>
</g>
<g id="clust2" class="cluster">
<title>cluster_AppModule_declarations</title>
<polygon fill="none" stroke="#000000" points="865,-78 865,-130 1464,-130 1464,-78 865,-78"/>
</g>
<g id="clust7" class="cluster">
<title>cluster_AppModule_imports</title>
<polygon fill="none" stroke="#000000" points="575,-78 575,-130 857,-130 857,-78 575,-78"/>
</g>
<g id="clust9" class="cluster">
<title>cluster_AppModule_bootstrap</title>
<polygon fill="none" stroke="#000000" points="652,-208 652,-260 776,-260 776,-208 652,-208"/>
</g>
<g id="clust10" class="cluster">
<title>cluster_AppModule_providers</title>
<polygon fill="none" stroke="#000000" points="16,-78 16,-130 567,-130 567,-78 16,-78"/>
</g>
<!-- AppComponent -->
<g id="node1" class="node">
<title>AppComponent</title>
<polygon fill="#ffffb3" stroke="#000000" points="1455.9399,-122 1350.0601,-122 1350.0601,-86 1455.9399,-86 1455.9399,-122"/>
<text text-anchor="middle" x="1403" y="-99.8" font-family="Times,serif" font-size="14.00" fill="#000000">AppComponent</text>
</g>
<!-- AppModule -->
<g id="node5" class="node">
<title>AppModule</title>
<polygon fill="#8dd3c7" stroke="#000000" points="755.6571,-187 752.6571,-191 731.6571,-191 728.6571,-187 672.3429,-187 672.3429,-151 755.6571,-151 755.6571,-187"/>
<text text-anchor="middle" x="714" y="-164.8" font-family="Times,serif" font-size="14.00" fill="#000000">AppModule</text>
</g>
<!-- AppComponent&#45;&gt;AppModule -->
<g id="edge1" class="edge">
<title>AppComponent&#45;&gt;AppModule</title>
<path fill="none" stroke="#000000" d="M1403,-122.0109C1403,-144.4852 1403,-180 1403,-180 1403,-180 765.8053,-180 765.8053,-180"/>
<polygon fill="#000000" stroke="#000000" points="765.8053,-176.5001 755.8053,-180 765.8053,-183.5001 765.8053,-176.5001"/>
</g>
<!-- LoginComponent -->
<g id="node2" class="node">
<title>LoginComponent</title>
<polygon fill="#ffffb3" stroke="#000000" points="1332.2758,-122 1217.7242,-122 1217.7242,-86 1332.2758,-86 1332.2758,-122"/>
<text text-anchor="middle" x="1275" y="-99.8" font-family="Times,serif" font-size="14.00" fill="#000000">LoginComponent</text>
</g>
<!-- LoginComponent&#45;&gt;AppModule -->
<g id="edge2" class="edge">
<title>LoginComponent&#45;&gt;AppModule</title>
<path fill="none" stroke="#000000" d="M1275,-122.1289C1275,-142.5724 1275,-173 1275,-173 1275,-173 765.7079,-173 765.7079,-173"/>
<polygon fill="#000000" stroke="#000000" points="765.7079,-169.5001 755.7079,-173 765.7078,-176.5001 765.7079,-169.5001"/>
</g>
<!-- NavigationComponent -->
<g id="node3" class="node">
<title>NavigationComponent</title>
<polygon fill="#ffffb3" stroke="#000000" points="1199.5407,-122 1056.4593,-122 1056.4593,-86 1199.5407,-86 1199.5407,-122"/>
<text text-anchor="middle" x="1128" y="-99.8" font-family="Times,serif" font-size="14.00" fill="#000000">NavigationComponent</text>
</g>
<!-- NavigationComponent&#45;&gt;AppModule -->
<g id="edge3" class="edge">
<title>NavigationComponent&#45;&gt;AppModule</title>
<path fill="none" stroke="#000000" d="M1128,-122.2667C1128,-140.5552 1128,-166 1128,-166 1128,-166 765.9748,-166 765.9748,-166"/>
<polygon fill="#000000" stroke="#000000" points="765.9749,-162.5001 755.9748,-166 765.9748,-169.5001 765.9749,-162.5001"/>
</g>
<!-- PageNotFoundComponent -->
<g id="node4" class="node">
<title>PageNotFoundComponent</title>
<polygon fill="#ffffb3" stroke="#000000" points="1038.8243,-122 873.1757,-122 873.1757,-86 1038.8243,-86 1038.8243,-122"/>
<text text-anchor="middle" x="956" y="-99.8" font-family="Times,serif" font-size="14.00" fill="#000000">PageNotFoundComponent</text>
</g>
<!-- PageNotFoundComponent&#45;&gt;AppModule -->
<g id="edge4" class="edge">
<title>PageNotFoundComponent&#45;&gt;AppModule</title>
<path fill="none" stroke="#000000" d="M956,-122.0091C956,-138.0494 956,-159 956,-159 956,-159 765.8769,-159 765.8769,-159"/>
<polygon fill="#000000" stroke="#000000" points="765.8769,-155.5001 755.8769,-159 765.8769,-162.5001 765.8769,-155.5001"/>
</g>
<!-- AppComponent  -->
<g id="node8" class="node">
<title>AppComponent </title>
<polygon fill="#80b1d3" stroke="#000000" points="768.439,-252 659.561,-252 659.561,-216 768.439,-216 768.439,-252"/>
<text text-anchor="middle" x="714" y="-229.8" font-family="Times,serif" font-size="14.00" fill="#000000">AppComponent </text>
</g>
<!-- AppModule&#45;&gt;AppComponent  -->
<g id="edge7" class="edge">
<title>AppModule&#45;&gt;AppComponent </title>
<path fill="none" stroke="#000000" stroke-dasharray="1,5" d="M714,-187.1061C714,-187.1061 714,-205.991 714,-205.991"/>
<polygon fill="#000000" stroke="#000000" points="710.5001,-205.9909 714,-215.991 717.5001,-205.991 710.5001,-205.9909"/>
</g>
<!-- AppRoutingModule -->
<g id="node6" class="node">
<title>AppRoutingModule</title>
<polygon fill="#8dd3c7" stroke="#000000" points="849.2744,-122 846.2744,-126 825.2744,-126 822.2744,-122 720.7256,-122 720.7256,-86 849.2744,-86 849.2744,-122"/>
<text text-anchor="middle" x="785" y="-99.8" font-family="Times,serif" font-size="14.00" fill="#000000">AppRoutingModule</text>
</g>
<!-- AppRoutingModule&#45;&gt;AppModule -->
<g id="edge5" class="edge">
<title>AppRoutingModule&#45;&gt;AppModule</title>
<path fill="none" stroke="#000000" d="M738.2206,-122.1061C738.2206,-122.1061 738.2206,-140.991 738.2206,-140.991"/>
<polygon fill="#000000" stroke="#000000" points="734.7206,-140.9909 738.2206,-150.991 741.7206,-140.991 734.7206,-140.9909"/>
</g>
<!-- DashboardModule -->
<g id="node7" class="node">
<title>DashboardModule</title>
<polygon fill="#8dd3c7" stroke="#000000" points="703.191,-122 700.191,-126 679.191,-126 676.191,-122 582.809,-122 582.809,-86 703.191,-86 703.191,-122"/>
<text text-anchor="middle" x="643" y="-99.8" font-family="Times,serif" font-size="14.00" fill="#000000">DashboardModule</text>
</g>
<!-- DashboardModule&#45;&gt;AppModule -->
<g id="edge6" class="edge">
<title>DashboardModule&#45;&gt;AppModule</title>
<path fill="none" stroke="#000000" d="M687.6336,-122.1061C687.6336,-122.1061 687.6336,-140.991 687.6336,-140.991"/>
<polygon fill="#000000" stroke="#000000" points="684.1337,-140.9909 687.6336,-150.991 691.1337,-140.991 684.1337,-140.9909"/>
</g>
<!-- ApiService -->
<g id="node9" class="node">
<title>ApiService</title>
<ellipse fill="#fdb462" stroke="#000000" cx="505" cy="-104" rx="54.4508" ry="18"/>
<text text-anchor="middle" x="505" y="-99.8" font-family="Times,serif" font-size="14.00" fill="#000000">ApiService</text>
</g>
<!-- ApiService&#45;&gt;AppModule -->
<g id="edge8" class="edge">
<title>ApiService&#45;&gt;AppModule</title>
<path fill="none" stroke="#000000" d="M505,-122.0091C505,-138.0494 505,-159 505,-159 505,-159 662.208,-159 662.208,-159"/>
<polygon fill="#000000" stroke="#000000" points="662.2081,-162.5001 672.208,-159 662.208,-155.5001 662.2081,-162.5001"/>
</g>
<!-- AuthService -->
<g id="node10" class="node">
<title>AuthService</title>
<ellipse fill="#fdb462" stroke="#000000" cx="373" cy="-104" rx="59.1083" ry="18"/>
<text text-anchor="middle" x="373" y="-99.8" font-family="Times,serif" font-size="14.00" fill="#000000">AuthService</text>
</g>
<!-- AuthService&#45;&gt;AppModule -->
<g id="edge9" class="edge">
<title>AuthService&#45;&gt;AppModule</title>
<path fill="none" stroke="#000000" d="M373,-122.2667C373,-140.5552 373,-166 373,-166 373,-166 662.1867,-166 662.1867,-166"/>
<polygon fill="#000000" stroke="#000000" points="662.1867,-169.5001 672.1867,-166 662.1867,-162.5001 662.1867,-169.5001"/>
</g>
<!-- ErrorInterceptor -->
<g id="node11" class="node">
<title>ErrorInterceptor</title>
<ellipse fill="#fdb462" stroke="#000000" cx="222" cy="-104" rx="73.5329" ry="18"/>
<text text-anchor="middle" x="222" y="-99.8" font-family="Times,serif" font-size="14.00" fill="#000000">ErrorInterceptor</text>
</g>
<!-- ErrorInterceptor&#45;&gt;AppModule -->
<g id="edge10" class="edge">
<title>ErrorInterceptor&#45;&gt;AppModule</title>
<path fill="none" stroke="#000000" d="M222,-122.1289C222,-142.5724 222,-173 222,-173 222,-173 662.0524,-173 662.0524,-173"/>
<polygon fill="#000000" stroke="#000000" points="662.0524,-176.5001 672.0524,-173 662.0523,-169.5001 662.0524,-176.5001"/>
</g>
<!-- Interceptor -->
<g id="node12" class="node">
<title>Interceptor</title>
<ellipse fill="#fdb462" stroke="#000000" cx="77" cy="-104" rx="53.2878" ry="18"/>
<text text-anchor="middle" x="77" y="-99.8" font-family="Times,serif" font-size="14.00" fill="#000000">Interceptor</text>
</g>
<!-- Interceptor&#45;&gt;AppModule -->
<g id="edge11" class="edge">
<title>Interceptor&#45;&gt;AppModule</title>
<path fill="none" stroke="#000000" d="M77,-122.0109C77,-144.4852 77,-180 77,-180 77,-180 662.2047,-180 662.2047,-180"/>
<polygon fill="#000000" stroke="#000000" points="662.2047,-183.5001 672.2047,-180 662.2046,-176.5001 662.2047,-183.5001"/>
</g>
</g>
</svg>
